<?xml version="1.0" encoding="UTF-8" standalone="no"?>
<svg
   width="24"
   height="24"
   viewBox="0 0 24 24"
   fill="none"
   version="1.1"
   id="svg2"
   sodipodi:docname="eu.fangornsrealm.MediaBrowser.svg"
   inkscape:version="1.4 (e7c3feb100, 2024-10-09)"
   xmlns:inkscape="http://www.inkscape.org/namespaces/inkscape"
   xmlns:sodipodi="http://sodipodi.sourceforge.net/DTD/sodipodi-0.dtd"
   xmlns="http://www.w3.org/2000/svg"
   xmlns:svg="http://www.w3.org/2000/svg">
  <sodipodi:namedview
     id="namedview2"
     pagecolor="#ffffff"
     bordercolor="#000000"
     borderopacity="0.25"
     inkscape:showpageshadow="2"
     inkscape:pageopacity="0.0"
     inkscape:pagecheckerboard="0"
     inkscape:deskcolor="#d1d1d1"
     showgrid="false"
     inkscape:zoom="32.93047"
     inkscape:cx="31.991648"
     inkscape:cy="28.226139"
     inkscape:window-width="3840"
     inkscape:window-height="2136"
     inkscape:window-x="0"
     inkscape:window-y="0"
     inkscape:window-maximized="1"
     inkscape:current-layer="svg2" />
  <defs
     id="defs2">
    <linearGradient
       id="paint0_linear_2004_704"
       x1="248"
       y1="72"
       x2="40.837002"
       y2="253.483"
       gradientUnits="userSpaceOnUse">
      <stop
         stop-color="#49BAC8"
         id="stop1" />
      <stop
         offset="1"
         stop-color="#229FAD"
         id="stop2" />
    </linearGradient>
    <linearGradient
       id="paint0_linear_2004_704-6"
       x1="248"
       y1="72"
       x2="40.837002"
       y2="253.483"
       gradientUnits="userSpaceOnUse">
      <stop
         stop-color="#49BAC8"
         id="stop1-0" />
      <stop
         offset="1"
         stop-color="#229FAD"
         id="stop2-6" />
    </linearGradient>
  </defs>
  <g
     id="g11"
     transform="matrix(0.09271927,0,0,0.11042549,0.13960043,-2.4043918)">
    <path
       id="Rectangle 491"
       d="M 8,56 C 8,47.1634 15.1634,40 24,40 h 71.7971 c 3.3814,0 6.6759,1.0713 9.4109,3.0602 L 123,56 h 109 c 8.837,0 16,7.1634 16,16 v 128 c 0,8.837 -7.163,16 -16,16 H 24 C 15.1634,216 8,208.837 8,200 Z"
       fill="#008490" />
    <rect
       id="Rectangle 418"
       x="8"
       y="72"
       width="240"
       height="144"
       rx="16"
       fill="url(#paint0_linear_2004_704)"
       style="fill:url(#paint0_linear_2004_704-6)" />
    <path
       d="m 592,35 c -22.712,0 -43.92,6.2 -62.041,17 H 504.5 C 495.359,52 488,59.359 488,68.5 V 93.959 C 477.201,112.08 471,133.288 471,156 v 4 c 0,22.712 6.2,43.92 17,62.041 V 247.5 c 0,9.141 7.359,16.5 16.5,16.5 h 25.459 c 18.121,10.799 39.329,17 62.041,17 22.712,0 43.92,-6.2 62.041,-17 H 679.5 c 9.141,0 16.5,-7.359 16.5,-16.5 V 222.041 C 706.799,203.92 713,182.712 713,160 v -4 c 0,-22.712 -6.2,-43.92 -17,-62.041 V 68.5 C 696,59.359 688.641,52 679.5,52 H 654.041 C 635.92,41.201 614.712,35 592,35 Z"
       fill="#565656"
       id="path1"
       transform="matrix(0.37978345,0,0,0.37384126,-89.878008,12.91556)" />
    <path
       d="m 592,36 c -22.623,0 -43.742,6.203 -61.766,17 H 505 c -8.864,0 -16,7.136 -16,16 v 25.234 c -10.797,18.023 -17,39.142 -17,61.766 0,22.624 6.203,43.742 17,61.766 V 243 c 0,8.864 7.136,16 16,16 h 25.234 c 18.023,10.797 39.142,17 61.766,17 22.624,0 43.742,-6.203 61.766,-17 H 679 c 8.864,0 16,-7.136 16,-16 v -25.234 c 10.797,-18.023 17,-39.142 17,-61.766 0,-22.624 -6.203,-43.742 -17,-61.766 V 69 c 0,-8.864 -7.136,-16 -16,-16 H 653.766 C 635.743,42.203 614.624,36 592,36 Z"
       fill="#acacac"
       id="path2-0"
       transform="matrix(0.37978345,0,0,0.37384126,-89.878008,12.91556)" />
    <rect
       x="489"
       y="53"
       width="206"
       height="206"
       ry="103"
       fill="#333333"
       id="rect2-9"
       transform="matrix(0.37978345,0,0,0.37384126,-89.878008,12.91556)" />
    <circle
       cx="592"
       cy="156"
       r="84"
       fill="#faa41a"
       id="circle2"
       transform="matrix(0.37978345,0,0,0.37384126,-89.878008,12.91556)" />
    <rect
       x="559"
       y="119"
       width="66"
       height="70"
       ry="33"
       fill="#845914"
       id="rect3-3"
       transform="matrix(0.37978345,0,0,0.37384126,-89.878008,12.91556)" />
    <circle
       cx="592"
       cy="156"
       r="32"
       fill="#333333"
       id="circle3"
       transform="matrix(0.37978345,0,0,0.37384126,-89.878008,12.91556)" />
    <g
       transform="matrix(0.7595669,0,0,0.74768252,-132.41375,-78.301707)"
       fill="#565656"
       id="g7">
      <circle
         cx="394"
         cy="158"
         r="2"
         id="circle4" />
      <circle
         cx="310"
         cy="158"
         r="2"
         id="circle5" />
      <circle
         cx="310"
         cy="242"
         r="2"
         id="circle6" />
      <circle
         cx="394"
         cy="242"
         r="2"
         id="circle7" />
    </g>
    <g
       transform="matrix(0.37978345,0,0,0.37384126,-89.878008,12.91556)"
       id="g8" />
    <g
       id="Size=256" />
    <g
       transform="matrix(0.51282051,0,0,0.51631278,-243.98444,96.629727)"
       id="g5">
      <rect
         x="480"
         y="84"
         width="224"
         height="176"
         ry="16"
         fill="#245c63"
         id="rect1-3" />
      <rect
         x="481"
         y="85"
         width="222"
         height="170"
         ry="15.5"
         fill="#48b9c7"
         id="rect2-6" />
      <rect
         x="504"
         y="108"
         width="176"
         height="120"
         ry="8"
         fill="#f6f6f6"
         id="rect3" />
      <path
         d="m 528,116 v 68 l 24,-24 24,24 40,-40 40,40 v -68 z"
         fill="#1c8d9b"
         opacity="0.5"
         id="path3-7" />
      <path
         d="m 592,152 64,68 H 528 Z"
         fill="#1c8d9b"
         id="path4-5" />
      <rect
         x="610"
         y="176.00999"
         width="104"
         height="91.987"
         ry="20.5"
         fill="#671d00"
         id="rect4" />
      <rect
         x="611"
         y="177"
         width="102"
         height="86"
         ry="20"
         fill="#cf3b00"
         id="rect5" />
      <path
         d="M 662,200 A 35.756,36 0 0 0 630,220.039 35.756,36 0 0 0 662,240 35.756,36 0 0 0 694,219.961 35.756,36 0 0 0 662,200 Z m 0,4 a 16,16 0 0 1 16,16 16,16 0 0 1 -16,16 16,16 0 0 1 -16,-16 16,16 0 0 1 16,-16 z m 0,8 a 8,8 0 0 0 -8,8 8,8 0 0 0 8,8 8,8 0 0 0 8,-8 8,8 0 0 0 -8,-8 z"
         fill="#ffffff"
         id="path5-3" />
    </g>
    <g
       transform="matrix(0.45679387,0,0,0.53977273,-68.778844,94.659091)"
       id="g10">
      <rect
         x="480"
         y="84"
         width="224"
         height="176"
         ry="16"
         fill="#782e11"
         id="rect1" />
      <rect
         x="481"
         y="85"
         width="222"
         height="170"
         ry="15.5"
         fill="#f15d22"
         id="rect2" />
      <path
         d="M 496.5,85 C 487.913,85 481,91.913 481,100.5 V 117 H 703 V 100.5 C 703,91.913 696.087,85 687.5,85 Z"
         id="path2" />
      <g
         fill="#f7f7f7"
         id="g6">
        <path
           d="m 516,85 -16,32 h 24 l 16,-32 z"
           id="path3" />
        <path
           d="m 564,85 -16,32 h 24 l 16,-32 z"
           id="path4" />
        <path
           d="m 612,85 -16,32 h 24 l 16,-32 z"
           id="path5" />
        <path
           d="m 660,85 -16,32 h 24 l 16,-32 z"
           id="path6" />
      </g>
      <path
         d="m 568.2,134.06 a 5.998,5.998 0 0 0 -5.976,5.648 h -0.012 v 0.153 c -0.004,0.066 -0.004,0.133 -0.012,0.199 -0.001,0.14 0.002,0.281 0.012,0.422 l -0.012,51.457 a 6,6 0 0 0 6,6 6,6 0 0 0 2.53,-0.574 l 0.013,0.012 0.152,-0.083 0.024,-0.012 a 6,6 0 0 0 0.528,-0.293 l 47.074,-25.629 c 0.02,-0.008 0.042,-0.02 0.06,-0.024 v -0.012 a 6,6 0 0 0 3.222,-5.308 6,6 0 0 0 -3.023,-5.203 l -0.106,-0.06 c -0.008,-0.004 -0.02,-0.004 -0.024,-0.012 l -47.543,-25.934 h -0.012 a 6.058,6.058 0 0 0 -2.895,-0.748 z"
         fill="#ffffff"
         id="path7" />
      <rect
         x="481"
         y="215"
         width="222"
         height="40"
         ry="14"
         fill="#dedede"
         id="rect7" />
      <rect
         x="493"
         y="231"
         width="140"
         height="8"
         ry="4"
         fill="#cf3b00"
         id="rect8" />
      <g
         transform="matrix(2,0,0,2,-129,-281)"
         id="g9">
        <circle
           cx="382"
           cy="258"
           r="6"
           fill="#822500"
           id="circle8" />
        <circle
           cx="382"
           cy="258"
           r="4"
           fill="#fffaf8"
           id="circle9" />
      </g>
    </g>
  </g>
</svg>
